<?xml version="1.0" encoding="utf-8"?>
<!-- Generator: Adobe Illustrator 26.0.2, SVG Export Plug-In . SVG Version: 6.00 Build 0)  -->
<svg version="1.1" id="Layer_1" xmlns="http://www.w3.org/2000/svg" xmlns:xlink="http://www.w3.org/1999/xlink" x="0px" y="0px"
	 viewBox="0 0 48 48" style="enable-background:new 0 0 48 48;" xml:space="preserve">
<style type="text/css">
	.st0{fill:none;}
	.st1{opacity:0.9;fill:#F9F9F9;enable-background:new    ;}
</style>
<path class="st0" d="M0,0h48v48H0V0z"/>
<path class="st1" d="M26,6C16,6,8,14.1,8,24H2l7.8,7.8l0.1,0.3L18,24h-6c0-7.7,6.3-14,14-14s14,6.3,14,14s-6.3,14-14,14
	c-3.9,0-7.4-1.6-9.9-4.1l-2.8,2.8C16.5,40,21,42,26,42c10,0,18-8.1,18-18S35.9,6,26,6z M24,16v10l8.6,5.1l1.4-2.4l-7-4.1V16H24z"/>
</svg>
